<?xml version="1.0" standalone="no"?>
<!DOCTYPE svg PUBLIC "-//W3C//DTD SVG 20010904//EN"
 "http://www.w3.org/TR/2001/REC-SVG-20010904/DTD/svg10.dtd">
<svg version="1.0" xmlns="http://www.w3.org/2000/svg"
 width="300.000000pt" height="58.000000pt" viewBox="0 0 300.000000 58.000000"
 preserveAspectRatio="xMidYMid meet">
<metadata>
Created by potrace 1.10, written by Peter Selinger 2001-2011
</metadata>
<g transform="translate(0.000000,58.000000) scale(0.050000,-0.050000)"
fill="#000000" stroke="none">
<path d="M413 1147 c-7 -8 -13 -34 -13 -58 0 -34 -15 -47 -65 -57 -429 -86
-430 -798 -1 -884 54 -11 65 -23 70 -75 l6 -63 2590 0 2590 0 6 63 c5 52 16
64 70 75 428 86 428 798 0 884 -50 10 -65 24 -70 65 l-6 53 -2582 5 c-1419 3
-2587 -1 -2595 -8z m5151 -81 c5 -43 19 -57 69 -67 429 -87 431 -703 2 -820
-65 -18 -75 -28 -75 -80 l0 -59 -2560 0 -2560 0 0 59 c0 52 -10 62 -75 80
-426 117 -428 732 -3 819 55 11 69 24 74 68 l7 54 2557 0 2557 0 7 -54z"/>
<path d="M220 643 c0 -24 -13 -38 -35 -36 -19 2 -35 -10 -35 -25 0 -54 46 -44
108 22 74 79 83 67 12 -16 -69 -80 -64 -108 20 -108 73 0 91 30 45 78 -20 21
-16 21 20 0 33 -20 50 -21 67 -4 31 31 3 70 -42 56 -26 -8 -35 -2 -33 24 2 27
-14 38 -62 42 -53 5 -65 -1 -65 -33z"/>
<path d="M5640 643 c0 -24 -13 -38 -34 -36 -19 2 -38 -14 -42 -35 -6 -30 1
-35 34 -27 32 9 42 2 42 -28 0 -33 12 -38 65 -33 48 4 64 15 60 39 -5 25 5 31
35 23 31 -8 40 -1 40 34 0 35 -9 42 -40 34 -30 -8 -40 -2 -35 23 4 24 -12 35
-60 39 -53 5 -65 -1 -65 -33z m91 -45 c21 -33 -26 -71 -53 -44 -23 23 -9 66
22 66 10 0 24 -10 31 -22z"/>
</g>
</svg>
